<?xml version="1.0" encoding="UTF-8" standalone="no"?>
<!-- Created with Inkscape (http://www.inkscape.org/) -->

<svg
   xmlns:ns0="http://www.iki.fi/pav/software/textext/"
   xmlns:osb="http://www.openswatchbook.org/uri/2009/osb"
   xmlns:dc="http://purl.org/dc/elements/1.1/"
   xmlns:cc="http://creativecommons.org/ns#"
   xmlns:rdf="http://www.w3.org/1999/02/22-rdf-syntax-ns#"
   xmlns:svg="http://www.w3.org/2000/svg"
   xmlns="http://www.w3.org/2000/svg"
   xmlns:sodipodi="http://sodipodi.sourceforge.net/DTD/sodipodi-0.dtd"
   xmlns:inkscape="http://www.inkscape.org/namespaces/inkscape"
   width="210mm"
   height="297mm"
   viewBox="0 0 744.09448819 1052.3622047"
   id="svg2"
   version="1.1"
   inkscape:version="0.48.4 r9939"
   sodipodi:docname="ink_ext_XXXXXX.svgPHI6XX"
   inkscape:export-filename="/home/jangames/Desktop/orga2tp2/informe/images/BlurASM1_0"
   inkscape:export-xdpi="90"
   inkscape:export-ydpi="90">
  <sodipodi:namedview
     id="base"
     pagecolor="#ffffff"
     bordercolor="#666666"
     borderopacity="1.0"
     inkscape:pageopacity="0.0"
     inkscape:pageshadow="2"
     inkscape:zoom="4"
     inkscape:cx="343.78311"
     inkscape:cy="931.57981"
     inkscape:document-units="px"
     inkscape:current-layer="layer1"
     showgrid="true"
     inkscape:snap-center="true"
     inkscape:snap-object-midpoints="true"
     inkscape:object-nodes="true"
     inkscape:window-width="1855"
     inkscape:window-height="1056"
     inkscape:window-x="1345"
     inkscape:window-y="24"
     inkscape:window-maximized="1">
    <inkscape:grid
       type="xygrid"
       id="grid3336" />
  </sodipodi:namedview>
  <defs
     id="defs4">
    <linearGradient
       id="linearGradient4199"
       osb:paint="solid">
      <stop
         style="stop-color:#0000ff;stop-opacity:1;"
         offset="0"
         id="stop4201" />
    </linearGradient>
  </defs>
  <metadata
     id="metadata7">
    <rdf:RDF>
      <cc:Work
         rdf:about="">
        <dc:format>image/svg+xml</dc:format>
        <dc:type
           rdf:resource="http://purl.org/dc/dcmitype/StillImage" />
        <dc:title />
      </cc:Work>
    </rdf:RDF>
  </metadata>
  <g
     inkscape:label="Layer 1"
     inkscape:groupmode="layer"
     id="layer1">
    <rect
       y="619.74988"
       x="492.67615"
       height="76.304199"
       width="76.304199"
       id="rect3359"
       style="fill:#ffffff;fill-rule:evenodd;stroke:#000000;stroke-width:2.0393157px;stroke-linecap:butt;stroke-linejoin:miter;stroke-opacity:1"
       inkscape:export-xdpi="100"
       inkscape:export-ydpi="100" />
    <rect
       y="619.74988"
       x="571.01971"
       height="76.304199"
       width="76.304199"
       id="rect3365"
       style="fill:#ffffff;fill-rule:evenodd;stroke:#000000;stroke-width:2.0393157px;stroke-linecap:butt;stroke-linejoin:miter;stroke-opacity:1"
       inkscape:export-xdpi="100"
       inkscape:export-ydpi="100" />
    <rect
       y="619.74988"
       x="649.36322"
       height="76.304199"
       width="76.304199"
       id="rect3371"
       style="fill:#ffffff;fill-rule:evenodd;stroke:#000000;stroke-width:2.0393157px;stroke-linecap:butt;stroke-linejoin:miter;stroke-opacity:1"
       inkscape:export-xdpi="100"
       inkscape:export-ydpi="100" />
    <rect
       y="619.74988"
       x="727.70673"
       height="76.304199"
       width="76.304199"
       id="rect3377"
       style="fill:#ffffff;fill-rule:evenodd;stroke:#000000;stroke-width:2.0393157px;stroke-linecap:butt;stroke-linejoin:miter;stroke-opacity:1"
       inkscape:export-xdpi="100"
       inkscape:export-ydpi="100" />
    <rect
       y="619.74988"
       x="806.05023"
       height="76.304199"
       width="76.304199"
       id="rect3383"
       style="fill:#ffffff;fill-rule:evenodd;stroke:#000000;stroke-width:2.0393157px;stroke-linecap:butt;stroke-linejoin:miter;stroke-opacity:1"
       inkscape:export-xdpi="100"
       inkscape:export-ydpi="100" />
    <rect
       y="619.74988"
       x="884.39374"
       height="76.304199"
       width="76.304199"
       id="rect3389"
       style="fill:#ffffff;fill-rule:evenodd;stroke:#000000;stroke-width:2.0393157px;stroke-linecap:butt;stroke-linejoin:miter;stroke-opacity:1"
       inkscape:export-xdpi="100"
       inkscape:export-ydpi="100" />
    <rect
       style="fill:#ffffff;fill-rule:evenodd;stroke:#000000;stroke-width:2.0393157px;stroke-linecap:butt;stroke-linejoin:miter;stroke-opacity:1"
       id="rect3338"
       width="76.304199"
       height="76.304199"
       x="884.39374"
       y="619.74988"
       inkscape:export-xdpi="100"
       inkscape:export-ydpi="100" />
    <rect
       style="fill:#ffffff;fill-rule:evenodd;stroke:#000000;stroke-width:2.0393157px;stroke-linecap:butt;stroke-linejoin:miter;stroke-opacity:1"
       id="rect3361"
       width="76.304199"
       height="76.304199"
       x="492.67615"
       y="698.09326"
       inkscape:export-xdpi="100"
       inkscape:export-ydpi="100" />
    <rect
       style="fill:#ffffff;fill-rule:evenodd;stroke:#000000;stroke-width:2.0393157px;stroke-linecap:butt;stroke-linejoin:miter;stroke-opacity:1"
       id="rect3367"
       width="76.304199"
       height="76.304199"
       x="571.01971"
       y="698.09326"
       inkscape:export-xdpi="100"
       inkscape:export-ydpi="100" />
    <rect
       style="fill:#ffffff;fill-rule:evenodd;stroke:#000000;stroke-width:2.0393157px;stroke-linecap:butt;stroke-linejoin:miter;stroke-opacity:1"
       id="rect3379"
       width="76.304199"
       height="76.304199"
       x="727.70673"
       y="698.09326"
       inkscape:export-xdpi="100"
       inkscape:export-ydpi="100" />
    <rect
       style="fill:#ffffff;fill-rule:evenodd;stroke:#000000;stroke-width:2.0393157px;stroke-linecap:butt;stroke-linejoin:miter;stroke-opacity:1"
       id="rect3385"
       width="76.304199"
       height="76.304199"
       x="806.05023"
       y="698.09326"
       inkscape:export-xdpi="100"
       inkscape:export-ydpi="100" />
    <rect
       style="fill:#00ff00;fill-opacity:0.39215686"
       id="rect4263-4"
       width="313.37405"
       height="78.343513"
       x="570.00006"
       y="697.07361"
       inkscape:export-xdpi="100"
       inkscape:export-ydpi="100" />
    <rect
       style="fill:#ffffff;fill-rule:evenodd;stroke:#000000;stroke-width:2.0393157px;stroke-linecap:butt;stroke-linejoin:miter;stroke-opacity:1"
       id="rect3391"
       width="76.304199"
       height="76.304199"
       x="884.39374"
       y="698.09326"
       inkscape:export-xdpi="100"
       inkscape:export-ydpi="100" />
    <rect
       y="698.09326"
       x="884.39374"
       height="76.304199"
       width="76.304199"
       id="rect3355"
       style="fill:#ffffff;fill-rule:evenodd;stroke:#000000;stroke-width:2.0393157px;stroke-linecap:butt;stroke-linejoin:miter;stroke-opacity:1"
       inkscape:export-xdpi="100"
       inkscape:export-ydpi="100" />
    <rect
       style="fill:#ffffff;fill-rule:evenodd;stroke:#000000;stroke-width:2.0393157px;stroke-linecap:butt;stroke-linejoin:miter;stroke-opacity:1"
       id="rect3363"
       width="76.304199"
       height="76.304199"
       x="492.67615"
       y="776.43683"
       inkscape:export-xdpi="100"
       inkscape:export-ydpi="100" />
    <rect
       style="fill:#ffffff;fill-rule:evenodd;stroke:#000000;stroke-width:2.0393157px;stroke-linecap:butt;stroke-linejoin:miter;stroke-opacity:1"
       id="rect3369"
       width="76.304199"
       height="76.304199"
       x="571.01971"
       y="776.43683"
       inkscape:export-xdpi="100"
       inkscape:export-ydpi="100" />
    <rect
       style="fill:#ffffff;fill-rule:evenodd;stroke:#000000;stroke-width:2.0393157px;stroke-linecap:butt;stroke-linejoin:miter;stroke-opacity:1"
       id="rect3375"
       width="76.304199"
       height="76.304199"
       x="649.36322"
       y="776.43683"
       inkscape:export-xdpi="100"
       inkscape:export-ydpi="100" />
    <rect
       style="fill:#ffffff;fill-rule:evenodd;stroke:#000000;stroke-width:2.0393157px;stroke-linecap:butt;stroke-linejoin:miter;stroke-opacity:1"
       id="rect3381"
       width="76.304199"
       height="76.304199"
       x="727.70673"
       y="776.43683"
       inkscape:export-xdpi="100"
       inkscape:export-ydpi="100" />
    <rect
       style="fill:#ffffff;fill-rule:evenodd;stroke:#000000;stroke-width:2.0393157px;stroke-linecap:butt;stroke-linejoin:miter;stroke-opacity:1"
       id="rect3387"
       width="76.304199"
       height="76.304199"
       x="806.05023"
       y="776.43683"
       inkscape:export-xdpi="100"
       inkscape:export-ydpi="100" />
    <rect
       style="fill:#ffffff;fill-rule:evenodd;stroke:#000000;stroke-width:2.0393157px;stroke-linecap:butt;stroke-linejoin:miter;stroke-opacity:1"
       id="rect3393"
       width="76.304199"
       height="76.304199"
       x="884.39374"
       y="776.43683"
       inkscape:export-xdpi="100"
       inkscape:export-ydpi="100" />
    <rect
       y="776.43683"
       x="884.39374"
       height="76.304199"
       width="76.304199"
       id="rect3357"
       style="fill:#ffffff;fill-rule:evenodd;stroke:#000000;stroke-width:2.0393157px;stroke-linecap:butt;stroke-linejoin:miter;stroke-opacity:1"
       inkscape:export-xdpi="100"
       inkscape:export-ydpi="100" />
    <rect
       y="517.90326"
       x="492.67615"
       height="76.304199"
       width="76.304199"
       id="rect3359-3"
       style="fill:#ffffff;fill-rule:evenodd;stroke:#000000;stroke-width:2.0393157px;stroke-linecap:butt;stroke-linejoin:miter;stroke-opacity:1"
       inkscape:export-xdpi="100"
       inkscape:export-ydpi="100" />
    <rect
       y="517.90326"
       x="571.01971"
       height="76.304199"
       width="76.304199"
       id="rect3365-8"
       style="fill:#ffffff;fill-rule:evenodd;stroke:#000000;stroke-width:2.0393157px;stroke-linecap:butt;stroke-linejoin:miter;stroke-opacity:1"
       inkscape:export-xdpi="100"
       inkscape:export-ydpi="100" />
    <rect
       y="517.90326"
       x="649.36322"
       height="76.304199"
       width="76.304199"
       id="rect3371-4"
       style="fill:#ffffff;fill-rule:evenodd;stroke:#000000;stroke-width:2.0393157px;stroke-linecap:butt;stroke-linejoin:miter;stroke-opacity:1"
       inkscape:export-xdpi="100"
       inkscape:export-ydpi="100" />
    <rect
       y="517.90326"
       x="727.70673"
       height="76.304199"
       width="76.304199"
       id="rect3377-2"
       style="fill:#ffffff;fill-rule:evenodd;stroke:#000000;stroke-width:2.0393157px;stroke-linecap:butt;stroke-linejoin:miter;stroke-opacity:1"
       inkscape:export-xdpi="100"
       inkscape:export-ydpi="100" />
    <rect
       y="517.90326"
       x="806.05023"
       height="76.304199"
       width="76.304199"
       id="rect3383-7"
       style="fill:#ffffff;fill-rule:evenodd;stroke:#000000;stroke-width:2.0393157px;stroke-linecap:butt;stroke-linejoin:miter;stroke-opacity:1"
       inkscape:export-xdpi="100"
       inkscape:export-ydpi="100" />
    <rect
       y="517.90326"
       x="884.39374"
       height="76.304199"
       width="76.304199"
       id="rect3389-6"
       style="fill:#ffffff;fill-rule:evenodd;stroke:#000000;stroke-width:2.0393157px;stroke-linecap:butt;stroke-linejoin:miter;stroke-opacity:1"
       inkscape:export-xdpi="100"
       inkscape:export-ydpi="100" />
    <rect
       style="fill:#ffffff;fill-rule:evenodd;stroke:#000000;stroke-width:2.0393157px;stroke-linecap:butt;stroke-linejoin:miter;stroke-opacity:1"
       id="rect3338-2"
       width="76.304199"
       height="76.304199"
       x="884.39374"
       y="517.90326"
       inkscape:export-xdpi="100"
       inkscape:export-ydpi="100" />
    <rect
       y="416.05664"
       x="492.67615"
       height="76.304199"
       width="76.304199"
       id="rect3359-3-8"
       style="fill:#ffffff;fill-rule:evenodd;stroke:#000000;stroke-width:2.03900004;stroke-linecap:butt;stroke-linejoin:miter;stroke-opacity:1;stroke-miterlimit:4;stroke-dasharray:none"
       inkscape:export-xdpi="100"
       inkscape:export-ydpi="100" />
    <rect
       y="416.05664"
       x="571.01971"
       height="76.304199"
       width="76.304199"
       id="rect3365-8-1"
       style="fill:#ffffff;fill-rule:evenodd;stroke:#000000;stroke-width:2.0393157px;stroke-linecap:butt;stroke-linejoin:miter;stroke-opacity:1"
       inkscape:export-xdpi="100"
       inkscape:export-ydpi="100" />
    <rect
       y="416.05664"
       x="649.36322"
       height="76.304199"
       width="76.304199"
       id="rect3371-4-4"
       style="fill:#ffffff;fill-rule:evenodd;stroke:#000000;stroke-width:2.0393157px;stroke-linecap:butt;stroke-linejoin:miter;stroke-opacity:1"
       inkscape:export-xdpi="100"
       inkscape:export-ydpi="100" />
    <rect
       y="416.05664"
       x="727.70673"
       height="76.304199"
       width="76.304199"
       id="rect3377-2-7"
       style="fill:#ffffff;fill-rule:evenodd;stroke:#000000;stroke-width:2.0393157px;stroke-linecap:butt;stroke-linejoin:miter;stroke-opacity:1"
       inkscape:export-xdpi="100"
       inkscape:export-ydpi="100" />
    <rect
       y="416.05664"
       x="806.05023"
       height="76.304199"
       width="76.304199"
       id="rect3383-7-3"
       style="fill:#ffffff;fill-rule:evenodd;stroke:#000000;stroke-width:2.0393157px;stroke-linecap:butt;stroke-linejoin:miter;stroke-opacity:1"
       inkscape:export-xdpi="100"
       inkscape:export-ydpi="100" />
    <rect
       y="416.05664"
       x="884.39374"
       height="76.304199"
       width="76.304199"
       id="rect3389-6-4"
       style="fill:#ffffff;fill-rule:evenodd;stroke:#000000;stroke-width:2.0393157px;stroke-linecap:butt;stroke-linejoin:miter;stroke-opacity:1"
       inkscape:export-xdpi="100"
       inkscape:export-ydpi="100" />
    <rect
       style="fill:#ffffff;fill-rule:evenodd;stroke:#000000;stroke-width:2.0393157px;stroke-linecap:butt;stroke-linejoin:miter;stroke-opacity:1"
       id="rect3338-2-8"
       width="76.304199"
       height="76.304199"
       x="884.39374"
       y="416.05664"
       inkscape:export-xdpi="100"
       inkscape:export-ydpi="100" />
    <rect
       style="fill:#ff0000;fill-opacity:0.39215686"
       id="rect3461"
       width="313.37405"
       height="78.343513"
       x="570.00006"
       y="415.03699"
       inkscape:export-xdpi="100"
       inkscape:export-ydpi="100" />
    <rect
       style="fill:#00ff00;fill-opacity:0.39215686"
       id="rect4263"
       width="313.37405"
       height="78.343513"
       x="570.00006"
       y="516.88361"
       inkscape:export-xdpi="100"
       inkscape:export-ydpi="100" />
    <rect
       style="fill:#0000ff;fill-opacity:0.39215686"
       id="rect4265"
       width="313.37405"
       height="78.343513"
       x="570.00006"
       y="775.41718"
       inkscape:export-xdpi="100"
       inkscape:export-ydpi="100" />
    <text
       xml:space="preserve"
       style="font-size:62.67481232px;font-style:normal;font-weight:normal;line-height:125%;letter-spacing:0px;word-spacing:0px;fill:#000000;fill-opacity:1;stroke:none;font-family:sans-serif"
       x="359.52835"
       y="477.46698"
       id="text4271"
       sodipodi:linespacing="125%"
       inkscape:export-xdpi="100"
       inkscape:export-ydpi="100"><tspan
         sodipodi:role="line"
         id="tspan4273"
         x="359.52835"
         y="477.46698">R12</tspan></text>
    <text
       xml:space="preserve"
       style="font-size:62.67481232px;font-style:normal;font-weight:normal;line-height:125%;letter-spacing:0px;word-spacing:0px;fill:#000000;fill-opacity:1;stroke:none;font-family:sans-serif"
       x="359.52835"
       y="579.3136"
       id="text4271-5"
       sodipodi:linespacing="125%"
       inkscape:export-xdpi="100"
       inkscape:export-ydpi="100"><tspan
         sodipodi:role="line"
         x="359.52835"
         y="579.3136"
         id="tspan4293">R13</tspan></text>
    <text
       xml:space="preserve"
       style="font-size:62.67481232px;font-style:normal;font-weight:normal;line-height:125%;letter-spacing:0px;word-spacing:0px;fill:#000000;fill-opacity:1;stroke:none;font-family:sans-serif"
       x="358.47253"
       y="759.05988"
       id="text4297"
       sodipodi:linespacing="125%"
       inkscape:export-xdpi="100"
       inkscape:export-ydpi="100"><tspan
         sodipodi:role="line"
         id="tspan4299"
         x="358.47253"
         y="759.05988">R10</tspan></text>
    <text
       xml:space="preserve"
       style="font-size:62.67481232px;font-style:normal;font-weight:normal;line-height:125%;letter-spacing:0px;word-spacing:0px;fill:#000000;fill-opacity:1;stroke:none;font-family:sans-serif"
       x="629.17389"
       y="578.86981"
       id="text4301"
       sodipodi:linespacing="125%"
       inkscape:export-xdpi="100"
       inkscape:export-ydpi="100"><tspan
         sodipodi:role="line"
         id="tspan4303"
         x="629.17389"
         y="578.86981">XMM2</tspan></text>
    <text
       xml:space="preserve"
       style="font-size:62.67481232px;font-style:normal;font-weight:normal;line-height:125%;letter-spacing:0px;word-spacing:0px;fill:#000000;fill-opacity:1;stroke:none;font-family:sans-serif"
       x="629.17389"
       y="477.02325"
       id="text4301-1"
       sodipodi:linespacing="125%"
       inkscape:export-xdpi="100"
       inkscape:export-ydpi="100"><tspan
         sodipodi:role="line"
         id="tspan4303-6"
         x="629.17389"
         y="477.02325">XMM0</tspan></text>
    <text
       xml:space="preserve"
       style="font-size:62.67481232px;font-style:normal;font-weight:normal;line-height:125%;letter-spacing:0px;word-spacing:0px;fill:#000000;fill-opacity:1;stroke:none;font-family:sans-serif"
       x="630.22968"
       y="837.84717"
       id="text4301-6"
       sodipodi:linespacing="125%"
       inkscape:export-xdpi="100"
       inkscape:export-ydpi="100"><tspan
         sodipodi:role="line"
         id="tspan4303-62"
         x="630.22968"
         y="837.84717">XMM4</tspan><tspan
         sodipodi:role="line"
         x="630.22968"
         y="916.19067"
         id="tspan4341" /></text>
    <text
       xml:space="preserve"
       style="font-size:62.67481232px;font-style:normal;font-weight:normal;line-height:125%;letter-spacing:0px;word-spacing:0px;fill:#000000;fill-opacity:1;stroke:none;font-family:sans-serif"
       x="358.47253"
       y="837.40338"
       id="text4297-7"
       sodipodi:linespacing="125%"
       inkscape:export-xdpi="100"
       inkscape:export-ydpi="100"><tspan
         sodipodi:role="line"
         id="tspan4299-2"
         x="358.47253"
         y="837.40338">R8</tspan></text>
    <path
       style="fill:none;stroke:#ff0000;stroke-width:4.70061111;stroke-linecap:butt;stroke-linejoin:miter;stroke-miterlimit:4;stroke-opacity:1;stroke-dasharray:none"
       d="m 570.00002,383.69958 0,501.3985"
       id="path4361"
       inkscape:connector-curvature="0"
       sodipodi:nodetypes="cc"
       inkscape:export-xdpi="100"
       inkscape:export-ydpi="100" />
    <text
       xml:space="preserve"
       style="font-size:62.67481232px;font-style:normal;font-weight:normal;line-height:125%;letter-spacing:0px;word-spacing:0px;fill:#000000;fill-opacity:1;stroke:none;font-family:sans-serif"
       x="514.85352"
       y="375.20728"
       id="text4363"
       sodipodi:linespacing="125%"
       inkscape:export-xdpi="100"
       inkscape:export-ydpi="100"><tspan
         sodipodi:role="line"
         id="tspan4365"
         x="514.85352"
         y="375.20728">RDI</tspan></text>
    <rect
       style="fill:#ff0000;fill-opacity:0.39215686"
       id="rect3461-6"
       width="313.37405"
       height="78.343513"
       x="570.00006"
       y="618.73016"
       inkscape:export-xdpi="100"
       inkscape:export-ydpi="100" />
    <rect
       style="fill:#000000;fill-opacity:0.58823529;fill-rule:evenodd;stroke:#000000;stroke-width:2.0393157px;stroke-linecap:butt;stroke-linejoin:miter;stroke-opacity:1"
       id="rect3373"
       width="76.304199"
       height="76.304199"
       x="649.36322"
       y="698.09326"
       inkscape:export-xdpi="100"
       inkscape:export-ydpi="100" />
    <text
       xml:space="preserve"
       style="font-size:62.67481232px;font-style:normal;font-weight:normal;line-height:125%;letter-spacing:0px;word-spacing:0px;fill:#ffffff;fill-opacity:1;stroke:none;font-family:sans-serif"
       x="666.61353"
       y="759.09045"
       id="text4267"
       sodipodi:linespacing="125%"
       inkscape:export-xdpi="100"
       inkscape:export-ydpi="100"><tspan
         sodipodi:role="line"
         id="tspan4269"
         x="666.61353"
         y="759.09045">P</tspan></text>
    <text
       xml:space="preserve"
       style="font-size:41.48226547px;font-style:normal;font-weight:normal;line-height:125%;letter-spacing:0px;word-spacing:0px;fill:#000000;fill-opacity:1;stroke:none;font-family:Sans"
       x="-22.466467"
       y="157.4623"
       id="text3421"
       sodipodi:linespacing="125%"><tspan
         sodipodi:role="line"
         x="-22.466467"
         y="157.4623"
         id="tspan3425">XMM0</tspan></text>
    <rect
       transform="translate(-4.9229925e-6,0)"
       y="102.36218"
       x="130"
       height="45"
       width="245"
       id="rect3233"
       style="fill:#ffffff;fill-rule:evenodd;stroke:#000000;stroke-width:1px;stroke-linecap:butt;stroke-linejoin:miter;stroke-opacity:1;fill-opacity:0" />
    <g
       style="font-style:normal;font-variant:normal;font-weight:normal;font-stretch:normal;letter-spacing:normal;word-spacing:normal;text-anchor:start;fill:none;stroke:#000000;stroke-linecap:butt;stroke-linejoin:miter;stroke-miterlimit:10.43299961;stroke-opacity:1;stroke-dasharray:none;stroke-dashoffset:0"
       id="content-8"
       transform="matrix(4.1015767,0,0,-4.1015767,-537.07404,3034.5148)"
       xml:space="preserve"
       stroke-miterlimit="10.433"
       font-style="normal"
       font-variant="normal"
       font-weight="normal"
       font-stretch="normal"
       font-size-adjust="none"
       letter-spacing="normal"
       word-spacing="normal"
       ns0:text="$suma_s(s,SS)$"
       ns0:preamble="" />    <rect
       y="102.36218"
       x="376"
       height="45"
       width="245"
       id="rect3233-5"
       style="fill:#ffffff;fill-opacity:0;fill-rule:evenodd;stroke:#000000;stroke-width:1px;stroke-linecap:butt;stroke-linejoin:miter;stroke-opacity:1" />
    <g
       style="font-style:normal;font-variant:normal;font-weight:normal;font-stretch:normal;letter-spacing:normal;word-spacing:normal;text-anchor:start;fill:none;stroke:#000000;stroke-linecap:butt;stroke-linejoin:miter;stroke-miterlimit:10.43299961;stroke-opacity:1;stroke-dasharray:none;stroke-dashoffset:0"
       ns0:preamble=""
       ns0:text="$suma_l(l,LL)$"
       word-spacing="normal"
       letter-spacing="normal"
       font-size-adjust="none"
       font-stretch="normal"
       font-weight="normal"
       font-variant="normal"
       font-style="normal"
       stroke-miterlimit="10.433"
       xml:space="preserve"
       transform="matrix(4.1015767,0,0,-4.1015767,-775.41772,3035.2941)"
       id="content"><path
         id="path4247"
         d="m 227.32,710.84 -0.02,0 -0.03,0 -0.02,-0.01 -0.03,0 -0.02,-0.01 -0.03,-0.01 -0.02,0 -0.02,-0.01 -0.02,-0.01 -0.02,-0.01 -0.02,-0.02 -0.02,-0.01 -0.02,-0.01 -0.02,-0.02 -0.01,-0.01 -0.02,-0.02 -0.02,-0.01 -0.01,-0.02 -0.01,-0.01 -0.02,-0.02 -0.01,-0.02 -0.01,-0.02 -0.01,-0.02 -0.01,-0.02 -0.01,-0.02 0,-0.02 -0.01,-0.02 -0.01,-0.02 0,-0.02 0,-0.02 0,-0.02 0,-0.02 c 0,-0.14 0.08,-0.29 0.3,-0.29 0.22,0 0.46,0.17 0.46,0.56 0,0.45 -0.43,0.86 -1.18,0.86 -1.32,0 -1.69,-1.02 -1.69,-1.45 0,-0.78 0.74,-0.93 1.03,-0.99 0.52,-0.1 1.03,-0.21 1.03,-0.75 0,-0.26 -0.22,-1.1 -1.42,-1.1 -0.14,0 -0.9,0 -1.13,0.53 0.38,-0.05 0.63,0.25 0.63,0.53 0,0.23 -0.17,0.35 -0.37,0.35 -0.26,0 -0.56,-0.21 -0.56,-0.66 0,-0.57 0.57,-0.96 1.42,-0.96 1.61,0 2,1.2 2,1.64 0,0.36 -0.19,0.61 -0.31,0.73 -0.27,0.28 -0.55,0.33 -0.99,0.42 -0.36,0.08 -0.76,0.15 -0.76,0.59 0,0.29 0.24,0.9 1.12,0.9 0.25,0 0.74,-0.07 0.89,-0.46 z"
         inkscape:connector-curvature="0"
         style="fill:#000000;stroke-width:0" /><path
         id="path4249"
         d="m 231.59,707.68 0.01,-0.04 0.01,-0.03 0.01,-0.04 0.02,-0.03 0.01,-0.04 0.02,-0.03 0.02,-0.03 0.02,-0.03 0.02,-0.03 0.02,-0.03 0.03,-0.03 0.02,-0.03 0.03,-0.02 0.02,-0.03 0.03,-0.02 0.03,-0.02 0.03,-0.03 0.03,-0.01 0.03,-0.02 0.03,-0.02 0.03,-0.02 0.04,-0.01 0.03,-0.02 0.04,-0.01 0.03,-0.01 0.04,-0.01 0.04,-0.01 0.03,0 0.04,-0.01 0.04,0 0.04,0 0.04,0 c 0.35,0 0.58,0.22 0.74,0.54 0.17,0.36 0.3,0.97 0.3,0.99 0,0.1 -0.1,0.1 -0.12,0.1 -0.1,0 -0.11,-0.05 -0.14,-0.18 -0.14,-0.56 -0.33,-1.24 -0.75,-1.24 -0.21,0 -0.31,0.13 -0.31,0.46 0,0.22 0.12,0.69 0.2,1.03 l 0.28,1.08 c 0.03,0.15 0.13,0.52 0.17,0.67 0.05,0.23 0.15,0.61 0.15,0.67 0,0.18 -0.14,0.27 -0.29,0.27 -0.05,0 -0.31,-0.01 -0.39,-0.35 -0.19,-0.73 -0.63,-2.47 -0.74,-2.99 -0.02,-0.04 -0.41,-0.84 -1.14,-0.84 -0.52,0 -0.62,0.45 -0.62,0.82 0,0.55 0.28,1.34 0.54,2.03 0.12,0.29 0.17,0.43 0.17,0.62 0,0.45 -0.32,0.82 -0.82,0.82 -0.94,0 -1.31,-1.44 -1.31,-1.53 0,-0.1 0.1,-0.1 0.12,-0.1 0.1,0 0.11,0.02 0.16,0.18 0.25,0.86 0.63,1.23 1,1.23 0.09,0 0.25,-0.01 0.25,-0.33 0,-0.24 -0.11,-0.53 -0.17,-0.68 -0.36,-0.98 -0.57,-1.6 -0.57,-2.08 0,-0.95 0.68,-1.19 1.22,-1.19 0.66,0 1.02,0.44 1.19,0.66 z"
         inkscape:connector-curvature="0"
         style="fill:#000000;stroke-width:0" /><path
         id="path4251"
         d="m 234.68,707.71 0,-0.01 0,-0.02 -0.01,-0.01 0,-0.02 -0.01,-0.03 0,-0.03 -0.01,-0.03 -0.01,-0.04 -0.01,-0.03 0,-0.03 -0.01,-0.01 0,-0.02 0,-0.01 -0.01,-0.02 0,-0.01 0,-0.01 -0.01,-0.02 0,-0.01 0,-0.01 0,-0.01 0,-0.01 -0.01,-0.01 0,-0.01 0,0 0,-0.01 0,-0.01 c 0,-0.18 0.14,-0.26 0.29,-0.26 0.12,0 0.3,0.07 0.37,0.27 0.01,0.02 0.13,0.49 0.19,0.74 l 0.22,0.89 c 0.06,0.22 0.12,0.44 0.17,0.67 0.04,0.17 0.12,0.46 0.13,0.5 0.14,0.3 0.67,1.21 1.62,1.21 0.44,0 0.53,-0.37 0.53,-0.7 0,-0.25 -0.07,-0.52 -0.15,-0.82 l -0.27,-1.16 -0.2,-0.75 c -0.04,-0.2 -0.13,-0.54 -0.13,-0.59 0,-0.18 0.14,-0.26 0.29,-0.26 0.31,0 0.36,0.24 0.44,0.56 0.14,0.56 0.51,2.01 0.6,2.4 0.03,0.12 0.56,1.32 1.64,1.32 0.43,0 0.54,-0.34 0.54,-0.7 0,-0.56 -0.42,-1.7 -0.62,-2.22 -0.09,-0.24 -0.13,-0.35 -0.13,-0.55 0,-0.47 0.35,-0.81 0.82,-0.81 0.94,0 1.3,1.45 1.3,1.53 0,0.1 -0.09,0.1 -0.12,0.1 -0.1,0 -0.1,-0.04 -0.15,-0.18 -0.15,-0.53 -0.46,-1.24 -1.01,-1.24 -0.17,0 -0.24,0.1 -0.24,0.33 0,0.25 0.09,0.49 0.18,0.71 0.19,0.51 0.61,1.62 0.61,2.18 0,0.65 -0.4,1.07 -1.15,1.07 -0.74,0 -1.25,-0.44 -1.62,-0.97 -0.01,0.13 -0.04,0.47 -0.32,0.71 -0.25,0.21 -0.57,0.26 -0.81,0.26 -0.9,0 -1.39,-0.64 -1.56,-0.87 -0.04,0.57 -0.46,0.87 -0.91,0.87 -0.46,0 -0.65,-0.39 -0.74,-0.57 -0.18,-0.35 -0.3,-0.93 -0.3,-0.96 0,-0.1 0.09,-0.1 0.11,-0.1 0.1,0 0.11,0.01 0.17,0.22 0.17,0.71 0.37,1.19 0.73,1.19 0.16,0 0.31,-0.08 0.31,-0.46 0,-0.21 -0.03,-0.32 -0.16,-0.83 z"
         inkscape:connector-curvature="0"
         style="fill:#000000;stroke-width:0" /><path
         id="path4253"
         d="m 246.26,710.88 -0.01,0.03 -0.02,0.04 -0.02,0.03 -0.02,0.03 -0.02,0.03 -0.02,0.03 -0.02,0.03 -0.02,0.03 -0.02,0.03 -0.03,0.03 -0.02,0.03 -0.03,0.02 -0.02,0.03 -0.03,0.02 -0.02,0.02 -0.03,0.03 -0.03,0.02 -0.03,0.02 -0.03,0.01 -0.03,0.02 -0.03,0.02 -0.04,0.01 -0.03,0.02 -0.03,0.01 -0.04,0.01 -0.04,0.01 -0.03,0.01 -0.04,0 -0.04,0.01 -0.04,0 -0.04,0.01 -0.04,0 c -1.17,0 -2.4,-1.47 -2.4,-2.92 0,-0.93 0.55,-1.58 1.32,-1.58 l 0.02,0.21 c -0.49,0 -0.63,0.55 -0.63,0.94 0,0.49 0.32,1.72 0.55,2.17 0.3,0.59 0.75,0.96 1.15,0.96 0.65,0 0.79,-0.82 0.79,-0.88 0,-0.06 -0.03,-0.12 -0.03,-0.17 l -0.5,-1.94 c -0.05,-0.18 -0.05,-0.2 -0.2,-0.37 -0.44,-0.55 -0.85,-0.71 -1.13,-0.71 l -0.02,-0.21 c 0.2,0 0.7,0.03 1.3,0.74 0.08,-0.42 0.43,-0.74 0.9,-0.74 0.35,0 0.58,0.22 0.74,0.54 0.17,0.36 0.3,0.97 0.3,0.99 0,0.1 -0.09,0.1 -0.12,0.1 -0.1,0 -0.11,-0.05 -0.14,-0.18 -0.17,-0.65 -0.35,-1.24 -0.76,-1.24 -0.27,0 -0.29,0.26 -0.29,0.46 0,0.22 0.01,0.3 0.12,0.74 0.11,0.41 0.13,0.51 0.22,0.89 l 0.36,1.39 c 0.07,0.28 0.07,0.3 0.07,0.34 0,0.17 -0.12,0.27 -0.29,0.27 -0.24,0 -0.39,-0.22 -0.42,-0.44 z"
         inkscape:connector-curvature="0"
         style="fill:#000000;stroke-width:0" /><path
         id="path4255"
         d="m 249.78,710.25 0,0 0,0 0,0 0,0 0,0 0.01,0 0,0.01 0,0 0,0 0,0 0,0.01 0,0 0,0 0,0.01 0,0 0,0.01 0.01,0 0,0.01 0,0.01 0,0 0,0.01 0,0 0,0 0,0.01 0.01,0 0,0.01 0,0 0,0 0,0.01 0,0 0,0 0,0 0,0 0,0 0,0.01 0,0 0,0 0,0 0,0 0,0 0,0 c 0,0.03 -0.03,0.1 -0.11,0.1 -0.14,0 -0.72,-0.06 -0.89,-0.07 -0.05,-0.01 -0.15,-0.02 -0.15,-0.16 0,-0.1 0.1,-0.1 0.18,-0.1 0.33,0 0.33,-0.05 0.33,-0.1 0,-0.05 -0.01,-0.1 -0.03,-0.16 l -0.86,-3.43 c -0.02,-0.07 -0.03,-0.15 -0.03,-0.22 0,-0.44 0.4,-0.66 0.73,-0.66 0.17,0 0.38,0.06 0.56,0.37 0.14,0.26 0.24,0.67 0.24,0.69 0,0.1 -0.09,0.1 -0.11,0.1 -0.1,0 -0.11,-0.05 -0.14,-0.17 -0.09,-0.35 -0.22,-0.79 -0.52,-0.79 -0.19,0 -0.24,0.17 -0.24,0.34 0,0.07 0.02,0.2 0.05,0.28 z"
         inkscape:connector-curvature="0"
         style="fill:#000000;stroke-width:0" /><path
         id="path4257"
         d="m 254.17,704.74 0,0.01 0,0 0,0 0,0.01 0,0 0,0 0,0.01 -0.01,0 0,0 0,0.01 0,0 0,0.01 -0.01,0 0,0.01 -0.01,0 0,0.01 -0.01,0.01 0,0 0,0.01 -0.01,0 0,0.01 0,0 -0.01,0 0,0.01 -0.01,0 0,0.01 -0.01,0 0,0.01 -0.01,0 0,0.01 -0.01,0 0,0.01 -0.01,0.01 0,0 -0.01,0.01 -0.01,0.01 0,0 -0.01,0.01 -0.01,0.01 0,0 -0.01,0.01 -0.01,0.01 c -1.24,1.25 -1.56,3.13 -1.56,4.65 0,1.73 0.38,3.46 1.6,4.7 0.13,0.12 0.13,0.14 0.13,0.17 0,0.07 -0.04,0.1 -0.1,0.1 -0.1,0 -0.99,-0.68 -1.58,-1.94 -0.51,-1.09 -0.63,-2.2 -0.63,-3.03 0,-0.78 0.11,-1.98 0.66,-3.1 0.6,-1.22 1.45,-1.87 1.55,-1.87 0.06,0 0.1,0.03 0.1,0.1 z"
         inkscape:connector-curvature="0"
         style="fill:#000000;stroke-width:0" /><path
         id="path4259"
         d="m 257.32,713.91 0,0 0,0 0,0 0,0 0,0.01 0,0 0,0 0,0.01 0,0 0,0.01 -0.01,0 0,0 0,0.01 0,0 0,0.01 -0.01,0 0,0.01 0,0 -0.01,0.01 0,0 0,0.01 -0.01,0 0,0 0,0 0,0.01 -0.01,0 0,0 0,0 -0.01,0 0,0.01 0,0 -0.01,0 0,0 -0.01,0 0,0 0,0 -0.01,0 0,0.01 -0.01,0 0,0 -0.01,0 0,0 -0.01,0 -0.01,0 0,0 c -0.23,0 -0.96,-0.08 -1.21,-0.1 -0.08,-0.01 -0.19,-0.02 -0.19,-0.21 0,-0.11 0.09,-0.11 0.24,-0.11 0.48,0 0.49,-0.09 0.49,-0.17 l -0.03,-0.2 -1.25,-4.96 c -0.03,-0.11 -0.05,-0.18 -0.05,-0.34 0,-0.57 0.44,-0.91 0.9,-0.91 0.33,0 0.58,0.19 0.75,0.55 0.18,0.38 0.3,0.96 0.3,0.98 0,0.1 -0.09,0.1 -0.12,0.1 -0.1,0 -0.11,-0.05 -0.14,-0.18 -0.17,-0.65 -0.36,-1.24 -0.76,-1.24 -0.3,0 -0.3,0.32 -0.3,0.46 0,0.24 0.02,0.29 0.06,0.48 z"
         inkscape:connector-curvature="0"
         style="fill:#000000;stroke-width:0" /><path
         id="path4261"
         d="m 259.94,707.14 0,0.06 0,0.05 0,0.06 -0.01,0.06 0,0.05 -0.01,0.05 -0.01,0.06 -0.01,0.04 -0.01,0.05 -0.02,0.05 -0.01,0.04 -0.02,0.04 -0.01,0.04 -0.02,0.04 -0.02,0.04 -0.02,0.03 -0.02,0.04 -0.02,0.03 -0.03,0.02 -0.02,0.03 -0.03,0.03 -0.02,0.02 -0.03,0.02 -0.03,0.02 -0.03,0.01 -0.03,0.02 -0.03,0.01 -0.04,0.01 -0.03,0.01 -0.03,0 -0.04,0.01 -0.03,0 c -0.33,0 -0.53,-0.25 -0.53,-0.53 0,-0.27 0.2,-0.53 0.53,-0.53 0.11,0 0.24,0.04 0.34,0.13 0.03,0.02 0.04,0.03 0.05,0.03 0.01,0 0.02,-0.01 0.02,-0.14 0,-0.74 -0.34,-1.34 -0.67,-1.66 -0.11,-0.11 -0.11,-0.13 -0.11,-0.16 0,-0.07 0.05,-0.11 0.1,-0.11 0.11,0 0.9,0.76 0.9,1.93 z"
         inkscape:connector-curvature="0"
         style="fill:#000000;stroke-width:0" /><path
         id="path4263"
         d="m 266.07,713.14 0,0.03 0.01,0.03 0.01,0.03 0.01,0.03 0.01,0.03 0.01,0.02 0.01,0.03 0.01,0.02 0.01,0.02 0.01,0.02 0.02,0.02 0.01,0.02 0.02,0.02 0.02,0.01 0.02,0.02 0.03,0.01 0.02,0.02 0.03,0.01 0.03,0.01 0.04,0.01 0.02,0 0.02,0.01 0.02,0 0.02,0.01 0.02,0 0.02,0 0.03,0.01 0.02,0 0.03,0 0.03,0 0.02,0.01 0.03,0 0.03,0 0.03,0 0.04,0.01 0.03,0 0.03,0 0.04,0 0.04,0 0.04,0 0.03,0 0.04,0 0.05,0 0.04,0 c 0.3,0 0.38,0 0.38,0.19 0,0.12 -0.11,0.12 -0.16,0.12 -0.33,0 -1.14,-0.03 -1.47,-0.03 -0.3,0 -1.03,0.03 -1.33,0.03 -0.07,0 -0.19,0 -0.19,-0.2 0,-0.11 0.09,-0.11 0.28,-0.11 0.02,0 0.21,0 0.38,-0.02 0.18,-0.02 0.27,-0.03 0.27,-0.16 0,-0.04 -0.01,-0.07 -0.04,-0.19 l -1.33,-5.33 c -0.1,-0.39 -0.12,-0.47 -0.91,-0.47 -0.17,0 -0.27,0 -0.27,-0.2 0,-0.11 0.09,-0.11 0.27,-0.11 h 4.61 c 0.24,0 0.25,0 0.31,0.17 l 0.78,2.15 c 0.04,0.11 0.04,0.13 0.04,0.14 0,0.04 -0.03,0.11 -0.12,0.11 -0.09,0 -0.1,-0.05 -0.17,-0.21 -0.34,-0.91 -0.77,-2.05 -2.49,-2.05 h -0.94 c -0.14,0 -0.16,0 -0.22,0.01 -0.1,0.01 -0.13,0.02 -0.13,0.1 0,0.03 0,0.05 0.05,0.23 z"
         inkscape:connector-curvature="0"
         style="fill:#000000;stroke-width:0" /><path
         id="path4265"
         d="m 272.85,713.14 0,0.03 0.01,0.03 0.01,0.03 0.01,0.03 0.01,0.03 0.01,0.02 0.01,0.03 0.01,0.02 0.01,0.02 0.01,0.02 0.02,0.02 0.01,0.02 0.02,0.02 0.02,0.01 0.02,0.02 0.03,0.01 0.02,0.02 0.03,0.01 0.03,0.01 0.04,0.01 0.02,0 0.02,0.01 0.02,0 0.02,0.01 0.02,0 0.02,0 0.03,0.01 0.02,0 0.03,0 0.03,0 0.02,0.01 0.03,0 0.03,0 0.03,0 0.04,0.01 0.03,0 0.04,0 0.03,0 0.04,0 0.04,0 0.04,0 0.04,0 0.04,0 0.04,0 c 0.3,0 0.38,0 0.38,0.19 0,0.12 -0.11,0.12 -0.16,0.12 -0.33,0 -1.14,-0.03 -1.47,-0.03 -0.3,0 -1.03,0.03 -1.33,0.03 -0.07,0 -0.18,0 -0.18,-0.2 0,-0.11 0.08,-0.11 0.27,-0.11 0.02,0 0.21,0 0.38,-0.02 0.18,-0.02 0.27,-0.03 0.27,-0.16 0,-0.04 -0.01,-0.07 -0.04,-0.19 l -1.33,-5.33 c -0.1,-0.39 -0.12,-0.47 -0.91,-0.47 -0.17,0 -0.27,0 -0.27,-0.2 0,-0.11 0.09,-0.11 0.27,-0.11 h 4.61 c 0.24,0 0.25,0 0.31,0.17 l 0.78,2.15 c 0.04,0.11 0.04,0.13 0.04,0.14 0,0.04 -0.03,0.11 -0.12,0.11 -0.09,0 -0.1,-0.05 -0.17,-0.21 -0.33,-0.91 -0.77,-2.05 -2.49,-2.05 h -0.94 c -0.14,0 -0.16,0 -0.22,0.01 -0.1,0.01 -0.13,0.02 -0.13,0.1 0,0.03 0,0.05 0.05,0.23 z"
         inkscape:connector-curvature="0"
         style="fill:#000000;stroke-width:0" /><path
         id="path4267"
         d="m 278.78,709.61 0,0.07 0,0.08 0,0.08 0,0.08 -0.01,0.17 -0.01,0.17 -0.02,0.18 -0.02,0.19 -0.03,0.2 -0.03,0.2 -0.04,0.2 -0.05,0.21 -0.05,0.21 -0.06,0.21 -0.07,0.21 -0.08,0.21 -0.04,0.11 -0.05,0.11 -0.04,0.1 -0.05,0.11 c -0.6,1.22 -1.46,1.87 -1.55,1.87 -0.06,0 -0.1,-0.04 -0.1,-0.1 0,-0.03 0,-0.05 0.18,-0.23 0.98,-0.99 1.55,-2.57 1.55,-4.64 0,-1.7 -0.37,-3.45 -1.61,-4.7 -0.12,-0.12 -0.12,-0.14 -0.12,-0.17 0,-0.06 0.04,-0.1 0.1,-0.1 0.09,0 0.99,0.68 1.58,1.94 0.5,1.09 0.62,2.19 0.62,3.03 z"
         inkscape:connector-curvature="0"
         style="fill:#000000;stroke-width:0" /></g>  </g>
</svg>
